<?xml version="1.0" encoding="UTF-8"?>
<svg xmlns="http://www.w3.org/2000/svg"
     xmlns:xlink="http://www.w3.org/1999/xlink"
     xmlns:gadfly="http://www.gadflyjl.org/ns"
     version="1.2"
     width="152.4mm" height="152.4mm" viewBox="0 0 152.4 152.4"
     stroke="none"
     fill="#000000"
     stroke-width="0.3"
     font-size="3.88"
>
<defs>
  <marker id="arrow" markerWidth="15" markerHeight="7" refX="5" refY="3.5" orient="auto" markerUnits="strokeWidth">
    <path d="M0,0 L15,3.5 L0,7 z" stroke="context-stroke" fill="context-stroke"/>
  </marker>
</defs>
<g class="plotroot xscalable yscalable" id="img-719f6d25-1">
  <g font-size="3.88" font-family="'PT Sans','Helvetica Neue','Helvetica',sans-serif" fill="#564A55" stroke="#000000" stroke-opacity="0.000" id="img-719f6d25-2">
    <g transform="translate(79.06,140.79)">
      <g class="primitive">
        <text text-anchor="middle" dy="0.6em">Hour</text>
      </g>
    </g>
  </g>
  <g class="guide xlabels" font-size="2.82" font-family="'PT Sans Caption','Helvetica Neue','Helvetica',sans-serif" fill="#6C606B" id="img-719f6d25-3">
    <g transform="translate(27.35,124.23)">
      <g class="primitive">
        <text text-anchor="end" dy="0.35em" transform="rotate(-90,0, 0)">1:00 AM</text>
      </g>
    </g>
    <g transform="translate(32.05,124.23)">
      <g class="primitive">
        <text text-anchor="end" dy="0.35em" transform="rotate(-90,0, 0)">2:00 AM</text>
      </g>
    </g>
    <g transform="translate(36.75,124.23)">
      <g class="primitive">
        <text text-anchor="end" dy="0.35em" transform="rotate(-90,0, 0)">3:00 AM</text>
      </g>
    </g>
    <g transform="translate(41.45,124.23)">
      <g class="primitive">
        <text text-anchor="end" dy="0.35em" transform="rotate(-90,0, 0)">4:00 AM</text>
      </g>
    </g>
    <g transform="translate(46.15,124.23)">
      <g class="primitive">
        <text text-anchor="end" dy="0.35em" transform="rotate(-90,0, 0)">5:00 AM</text>
      </g>
    </g>
    <g transform="translate(50.86,124.23)">
      <g class="primitive">
        <text text-anchor="end" dy="0.35em" transform="rotate(-90,0, 0)">6:00 AM</text>
      </g>
    </g>
    <g transform="translate(55.56,124.23)">
      <g class="primitive">
        <text text-anchor="end" dy="0.35em" transform="rotate(-90,0, 0)">7:00 AM</text>
      </g>
    </g>
    <g transform="translate(60.26,124.23)">
      <g class="primitive">
        <text text-anchor="end" dy="0.35em" transform="rotate(-90,0, 0)">8:00 AM</text>
      </g>
    </g>
    <g transform="translate(64.96,124.23)">
      <g class="primitive">
        <text text-anchor="end" dy="0.35em" transform="rotate(-90,0, 0)">9:00 AM</text>
      </g>
    </g>
    <g transform="translate(69.66,124.23)">
      <g class="primitive">
        <text text-anchor="end" dy="0.35em" transform="rotate(-90,0, 0)">10:00 AM</text>
      </g>
    </g>
    <g transform="translate(74.36,124.23)">
      <g class="primitive">
        <text text-anchor="end" dy="0.35em" transform="rotate(-90,0, 0)">11:00 AM</text>
      </g>
    </g>
    <g transform="translate(79.06,124.23)">
      <g class="primitive">
        <text text-anchor="end" dy="0.35em" transform="rotate(-90,0, 0)">12:00 AM</text>
      </g>
    </g>
    <g transform="translate(83.76,124.23)">
      <g class="primitive">
        <text text-anchor="end" dy="0.35em" transform="rotate(-90,0, 0)">1:00 PM</text>
      </g>
    </g>
    <g transform="translate(88.46,124.23)">
      <g class="primitive">
        <text text-anchor="end" dy="0.35em" transform="rotate(-90,0, 0)">2:00 PM</text>
      </g>
    </g>
    <g transform="translate(93.16,124.23)">
      <g class="primitive">
        <text text-anchor="end" dy="0.35em" transform="rotate(-90,0, 0)">3:00 PM</text>
      </g>
    </g>
    <g transform="translate(97.86,124.23)">
      <g class="primitive">
        <text text-anchor="end" dy="0.35em" transform="rotate(-90,0, 0)">4:00 PM</text>
      </g>
    </g>
    <g transform="translate(102.56,124.23)">
      <g class="primitive">
        <text text-anchor="end" dy="0.35em" transform="rotate(-90,0, 0)">5:00 PM</text>
      </g>
    </g>
    <g transform="translate(107.26,124.23)">
      <g class="primitive">
        <text text-anchor="end" dy="0.35em" transform="rotate(-90,0, 0)">6:00 PM</text>
      </g>
    </g>
    <g transform="translate(111.96,124.23)">
      <g class="primitive">
        <text text-anchor="end" dy="0.35em" transform="rotate(-90,0, 0)">7:00 PM</text>
      </g>
    </g>
    <g transform="translate(116.66,124.23)">
      <g class="primitive">
        <text text-anchor="end" dy="0.35em" transform="rotate(-90,0, 0)">8:00 PM</text>
      </g>
    </g>
    <g transform="translate(121.36,124.23)">
      <g class="primitive">
        <text text-anchor="end" dy="0.35em" transform="rotate(-90,0, 0)">9:00 PM</text>
      </g>
    </g>
    <g transform="translate(126.07,124.23)">
      <g class="primitive">
        <text text-anchor="end" dy="0.35em" transform="rotate(-90,0, 0)">10:00 PM</text>
      </g>
    </g>
    <g transform="translate(130.77,124.23)">
      <g class="primitive">
        <text text-anchor="end" dy="0.35em" transform="rotate(-90,0, 0)">11:00 PM</text>
      </g>
    </g>
    <g transform="translate(135.47,124.23)">
      <g class="primitive">
        <text text-anchor="end" dy="0.35em" transform="rotate(-90,0, 0)">12:00 PM</text>
      </g>
    </g>
  </g>
  <g class="guide colorkey" id="img-719f6d25-4">
    <g font-size="2.82" font-family="'PT Sans','Helvetica Neue','Helvetica',sans-serif" fill="#4C404B" id="img-719f6d25-5">
      <g transform="translate(141.78,83.27)">
        <g class="primitive">
          <text dy="0.35em">50</text>
        </g>
      </g>
      <g transform="translate(141.78,76.41)">
        <g class="primitive">
          <text dy="0.35em">100</text>
        </g>
      </g>
      <g transform="translate(141.78,69.55)">
        <g class="primitive">
          <text dy="0.35em">150</text>
        </g>
      </g>
      <g transform="translate(141.78,62.68)">
        <g class="primitive">
          <text dy="0.35em">200</text>
        </g>
      </g>
      <g transform="translate(141.78,90)">
        <g class="primitive">
          <text dy="0.35em">1</text>
        </g>
      </g>
    </g>
    <g shape-rendering="crispEdges" stroke="#000000" stroke-opacity="0.000" id="img-719f6d25-6">
      <g transform="translate(140.12,89.66)" fill="#004D84">
        <path d="M-0.66,-0.34 L 0.66 -0.34 0.66 0.34 -0.66 0.34 z" class="primitive"/>
      </g>
      <g transform="translate(140.12,88.97)" fill="#005B8D">
        <path d="M-0.66,-0.34 L 0.66 -0.34 0.66 0.34 -0.66 0.34 z" class="primitive"/>
      </g>
      <g transform="translate(140.12,88.29)" fill="#006995">
        <path d="M-0.66,-0.34 L 0.66 -0.34 0.66 0.34 -0.66 0.34 z" class="primitive"/>
      </g>
      <g transform="translate(140.12,87.61)" fill="#00769D">
        <path d="M-0.66,-0.34 L 0.66 -0.34 0.66 0.34 -0.66 0.34 z" class="primitive"/>
      </g>
      <g transform="translate(140.12,86.92)" fill="#0083A3">
        <path d="M-0.66,-0.34 L 0.66 -0.34 0.66 0.34 -0.66 0.34 z" class="primitive"/>
      </g>
      <g transform="translate(140.12,86.24)" fill="#278FA9">
        <path d="M-0.66,-0.34 L 0.66 -0.34 0.66 0.34 -0.66 0.34 z" class="primitive"/>
      </g>
      <g transform="translate(140.12,85.56)" fill="#409BAF">
        <path d="M-0.66,-0.34 L 0.66 -0.34 0.66 0.34 -0.66 0.34 z" class="primitive"/>
      </g>
      <g transform="translate(140.12,84.88)" fill="#55A7B5">
        <path d="M-0.66,-0.34 L 0.66 -0.34 0.66 0.34 -0.66 0.34 z" class="primitive"/>
      </g>
      <g transform="translate(140.12,84.19)" fill="#69B2BA">
        <path d="M-0.66,-0.34 L 0.66 -0.34 0.66 0.34 -0.66 0.34 z" class="primitive"/>
      </g>
      <g transform="translate(140.12,83.51)" fill="#7BBCC0">
        <path d="M-0.66,-0.34 L 0.66 -0.34 0.66 0.34 -0.66 0.34 z" class="primitive"/>
      </g>
      <g transform="translate(140.12,82.83)" fill="#8DC6C5">
        <path d="M-0.66,-0.34 L 0.66 -0.34 0.66 0.34 -0.66 0.34 z" class="primitive"/>
      </g>
      <g transform="translate(140.12,82.14)" fill="#9ED0CB">
        <path d="M-0.66,-0.34 L 0.66 -0.34 0.66 0.34 -0.66 0.34 z" class="primitive"/>
      </g>
      <g transform="translate(140.12,81.46)" fill="#A5CFC7">
        <path d="M-0.66,-0.34 L 0.66 -0.34 0.66 0.34 -0.66 0.34 z" class="primitive"/>
      </g>
      <g transform="translate(140.12,80.78)" fill="#ABCEC4">
        <path d="M-0.66,-0.34 L 0.66 -0.34 0.66 0.34 -0.66 0.34 z" class="primitive"/>
      </g>
      <g transform="translate(140.12,80.1)" fill="#B1CCC2">
        <path d="M-0.66,-0.34 L 0.66 -0.34 0.66 0.34 -0.66 0.34 z" class="primitive"/>
      </g>
      <g transform="translate(140.12,79.41)" fill="#B5CCC1">
        <path d="M-0.66,-0.34 L 0.66 -0.34 0.66 0.34 -0.66 0.34 z" class="primitive"/>
      </g>
      <g transform="translate(140.12,78.73)" fill="#B7CBBF">
        <path d="M-0.66,-0.34 L 0.66 -0.34 0.66 0.34 -0.66 0.34 z" class="primitive"/>
      </g>
      <g transform="translate(140.12,78.05)" fill="#B9CBBD">
        <path d="M-0.66,-0.34 L 0.66 -0.34 0.66 0.34 -0.66 0.34 z" class="primitive"/>
      </g>
      <g transform="translate(140.12,77.37)" fill="#BBCBBB">
        <path d="M-0.66,-0.34 L 0.66 -0.34 0.66 0.34 -0.66 0.34 z" class="primitive"/>
      </g>
      <g transform="translate(140.12,76.68)" fill="#BDCABA">
        <path d="M-0.66,-0.34 L 0.66 -0.34 0.66 0.34 -0.66 0.34 z" class="primitive"/>
      </g>
      <g transform="translate(140.12,76)" fill="#BFCAB8">
        <path d="M-0.66,-0.34 L 0.66 -0.34 0.66 0.34 -0.66 0.34 z" class="primitive"/>
      </g>
      <g transform="translate(140.12,75.32)" fill="#C2C9B7">
        <path d="M-0.66,-0.34 L 0.66 -0.34 0.66 0.34 -0.66 0.34 z" class="primitive"/>
      </g>
      <g transform="translate(140.12,74.63)" fill="#C4C9B6">
        <path d="M-0.66,-0.34 L 0.66 -0.34 0.66 0.34 -0.66 0.34 z" class="primitive"/>
      </g>
      <g transform="translate(140.12,73.95)" fill="#C6C8B5">
        <path d="M-0.66,-0.34 L 0.66 -0.34 0.66 0.34 -0.66 0.34 z" class="primitive"/>
      </g>
      <g transform="translate(140.12,73.27)" fill="#C9C7B4">
        <path d="M-0.66,-0.34 L 0.66 -0.34 0.66 0.34 -0.66 0.34 z" class="primitive"/>
      </g>
      <g transform="translate(140.12,72.59)" fill="#CCC7B2">
        <path d="M-0.66,-0.34 L 0.66 -0.34 0.66 0.34 -0.66 0.34 z" class="primitive"/>
      </g>
      <g transform="translate(140.12,71.9)" fill="#CFC6AE">
        <path d="M-0.66,-0.34 L 0.66 -0.34 0.66 0.34 -0.66 0.34 z" class="primitive"/>
      </g>
      <g transform="translate(140.12,71.22)" fill="#D4C5AA">
        <path d="M-0.66,-0.34 L 0.66 -0.34 0.66 0.34 -0.66 0.34 z" class="primitive"/>
      </g>
      <g transform="translate(140.12,70.54)" fill="#D8C3A6">
        <path d="M-0.66,-0.34 L 0.66 -0.34 0.66 0.34 -0.66 0.34 z" class="primitive"/>
      </g>
      <g transform="translate(140.12,69.85)" fill="#D3B79A">
        <path d="M-0.66,-0.34 L 0.66 -0.34 0.66 0.34 -0.66 0.34 z" class="primitive"/>
      </g>
      <g transform="translate(140.12,69.17)" fill="#CDAB8E">
        <path d="M-0.66,-0.34 L 0.66 -0.34 0.66 0.34 -0.66 0.34 z" class="primitive"/>
      </g>
      <g transform="translate(140.12,68.49)" fill="#C89E82">
        <path d="M-0.66,-0.34 L 0.66 -0.34 0.66 0.34 -0.66 0.34 z" class="primitive"/>
      </g>
      <g transform="translate(140.12,67.81)" fill="#C19177">
        <path d="M-0.66,-0.34 L 0.66 -0.34 0.66 0.34 -0.66 0.34 z" class="primitive"/>
      </g>
      <g transform="translate(140.12,67.12)" fill="#BA836C">
        <path d="M-0.66,-0.34 L 0.66 -0.34 0.66 0.34 -0.66 0.34 z" class="primitive"/>
      </g>
      <g transform="translate(140.12,66.44)" fill="#B27563">
        <path d="M-0.66,-0.34 L 0.66 -0.34 0.66 0.34 -0.66 0.34 z" class="primitive"/>
      </g>
      <g transform="translate(140.12,65.76)" fill="#AA665A">
        <path d="M-0.66,-0.34 L 0.66 -0.34 0.66 0.34 -0.66 0.34 z" class="primitive"/>
      </g>
      <g transform="translate(140.12,65.07)" fill="#A05752">
        <path d="M-0.66,-0.34 L 0.66 -0.34 0.66 0.34 -0.66 0.34 z" class="primitive"/>
      </g>
      <g transform="translate(140.12,64.39)" fill="#96484A">
        <path d="M-0.66,-0.34 L 0.66 -0.34 0.66 0.34 -0.66 0.34 z" class="primitive"/>
      </g>
      <g transform="translate(140.12,63.71)" fill="#8B3844">
        <path d="M-0.66,-0.34 L 0.66 -0.34 0.66 0.34 -0.66 0.34 z" class="primitive"/>
      </g>
      <g transform="translate(140.12,63.03)" fill="#7E273E">
        <path d="M-0.66,-0.34 L 0.66 -0.34 0.66 0.34 -0.66 0.34 z" class="primitive"/>
      </g>
      <g stroke="#FFFFFF" stroke-width="0.2" id="img-719f6d25-7">
        <g transform="translate(140.12,83.27)">
          <path fill="none" d="M-0.66,0 L 0.66 0" class="primitive"/>
        </g>
        <g transform="translate(140.12,76.41)">
          <path fill="none" d="M-0.66,0 L 0.66 0" class="primitive"/>
        </g>
        <g transform="translate(140.12,69.55)">
          <path fill="none" d="M-0.66,0 L 0.66 0" class="primitive"/>
        </g>
        <g transform="translate(140.12,62.68)">
          <path fill="none" d="M-0.66,0 L 0.66 0" class="primitive"/>
        </g>
        <g transform="translate(140.12,90)">
          <path fill="none" d="M-0.66,0 L 0.66 0" class="primitive"/>
        </g>
      </g>
    </g>
    <g fill="#362A35" font-size="3.88" font-family="'PT Sans','Helvetica Neue','Helvetica',sans-serif" stroke="#000000" stroke-opacity="0.000" id="img-719f6d25-8">
      <g transform="translate(139.47,58.68)">
        <g class="primitive">
          <text dy="-0em">Count</text>
        </g>
      </g>
    </g>
  </g>
  <g clip-path="url(#img-719f6d25-9)">
    <g id="img-719f6d25-10">
      <g pointer-events="visible" fill="#000000" fill-opacity="0.000" stroke="#000000" stroke-opacity="0.000" class="guide background" id="img-719f6d25-11">
        <g transform="translate(79.06,68.73)" id="img-719f6d25-12">
          <path d="M-58.41,-54.51 L 58.41 -54.51 58.41 54.51 -58.41 54.51 z" class="primitive"/>
        </g>
      </g>
      <g class="guide ygridlines xfixed" stroke-dasharray="0.5,0.5" stroke-width="0.2" stroke="#D0D0E0" id="img-719f6d25-13">
        <g transform="translate(79.06,121.23)" id="img-719f6d25-14">
          <path fill="none" d="M-58.41,0 L 58.41 0" class="primitive"/>
        </g>
        <g transform="translate(79.06,103.73)" id="img-719f6d25-15">
          <path fill="none" d="M-58.41,0 L 58.41 0" class="primitive"/>
        </g>
        <g transform="translate(79.06,86.23)" id="img-719f6d25-16">
          <path fill="none" d="M-58.41,0 L 58.41 0" class="primitive"/>
        </g>
        <g transform="translate(79.06,68.73)" id="img-719f6d25-17">
          <path fill="none" d="M-58.41,0 L 58.41 0" class="primitive"/>
        </g>
        <g transform="translate(79.06,51.23)" id="img-719f6d25-18">
          <path fill="none" d="M-58.41,0 L 58.41 0" class="primitive"/>
        </g>
        <g transform="translate(79.06,33.73)" id="img-719f6d25-19">
          <path fill="none" d="M-58.41,0 L 58.41 0" class="primitive"/>
        </g>
        <g transform="translate(79.06,16.22)" id="img-719f6d25-20">
          <path fill="none" d="M-58.41,0 L 58.41 0" class="primitive"/>
        </g>
      </g>
      <g class="guide xgridlines yfixed" stroke-dasharray="0.5,0.5" stroke-width="0.2" stroke="#D0D0E0" id="img-719f6d25-21">
        <g transform="translate(27.35,68.73)" id="img-719f6d25-22">
          <path fill="none" d="M0,-54.51 L 0 54.51" class="primitive"/>
        </g>
        <g transform="translate(32.05,68.73)" id="img-719f6d25-23">
          <path fill="none" d="M0,-54.51 L 0 54.51" class="primitive"/>
        </g>
        <g transform="translate(36.75,68.73)" id="img-719f6d25-24">
          <path fill="none" d="M0,-54.51 L 0 54.51" class="primitive"/>
        </g>
        <g transform="translate(41.45,68.73)" id="img-719f6d25-25">
          <path fill="none" d="M0,-54.51 L 0 54.51" class="primitive"/>
        </g>
        <g transform="translate(46.15,68.73)" id="img-719f6d25-26">
          <path fill="none" d="M0,-54.51 L 0 54.51" class="primitive"/>
        </g>
        <g transform="translate(50.86,68.73)" id="img-719f6d25-27">
          <path fill="none" d="M0,-54.51 L 0 54.51" class="primitive"/>
        </g>
        <g transform="translate(55.56,68.73)" id="img-719f6d25-28">
          <path fill="none" d="M0,-54.51 L 0 54.51" class="primitive"/>
        </g>
        <g transform="translate(60.26,68.73)" id="img-719f6d25-29">
          <path fill="none" d="M0,-54.51 L 0 54.51" class="primitive"/>
        </g>
        <g transform="translate(64.96,68.73)" id="img-719f6d25-30">
          <path fill="none" d="M0,-54.51 L 0 54.51" class="primitive"/>
        </g>
        <g transform="translate(69.66,68.73)" id="img-719f6d25-31">
          <path fill="none" d="M0,-54.51 L 0 54.51" class="primitive"/>
        </g>
        <g transform="translate(74.36,68.73)" id="img-719f6d25-32">
          <path fill="none" d="M0,-54.51 L 0 54.51" class="primitive"/>
        </g>
        <g transform="translate(79.06,68.73)" id="img-719f6d25-33">
          <path fill="none" d="M0,-54.51 L 0 54.51" class="primitive"/>
        </g>
        <g transform="translate(83.76,68.73)" id="img-719f6d25-34">
          <path fill="none" d="M0,-54.51 L 0 54.51" class="primitive"/>
        </g>
        <g transform="translate(88.46,68.73)" id="img-719f6d25-35">
          <path fill="none" d="M0,-54.51 L 0 54.51" class="primitive"/>
        </g>
        <g transform="translate(93.16,68.73)" id="img-719f6d25-36">
          <path fill="none" d="M0,-54.51 L 0 54.51" class="primitive"/>
        </g>
        <g transform="translate(97.86,68.73)" id="img-719f6d25-37">
          <path fill="none" d="M0,-54.51 L 0 54.51" class="primitive"/>
        </g>
        <g transform="translate(102.56,68.73)" id="img-719f6d25-38">
          <path fill="none" d="M0,-54.51 L 0 54.51" class="primitive"/>
        </g>
        <g transform="translate(107.26,68.73)" id="img-719f6d25-39">
          <path fill="none" d="M0,-54.51 L 0 54.51" class="primitive"/>
        </g>
        <g transform="translate(111.96,68.73)" id="img-719f6d25-40">
          <path fill="none" d="M0,-54.51 L 0 54.51" class="primitive"/>
        </g>
        <g transform="translate(116.66,68.73)" id="img-719f6d25-41">
          <path fill="none" d="M0,-54.51 L 0 54.51" class="primitive"/>
        </g>
        <g transform="translate(121.36,68.73)" id="img-719f6d25-42">
          <path fill="none" d="M0,-54.51 L 0 54.51" class="primitive"/>
        </g>
        <g transform="translate(126.07,68.73)" id="img-719f6d25-43">
          <path fill="none" d="M0,-54.51 L 0 54.51" class="primitive"/>
        </g>
        <g transform="translate(130.77,68.73)" id="img-719f6d25-44">
          <path fill="none" d="M0,-54.51 L 0 54.51" class="primitive"/>
        </g>
        <g transform="translate(135.47,68.73)" id="img-719f6d25-45">
          <path fill="none" d="M0,-54.51 L 0 54.51" class="primitive"/>
        </g>
      </g>
      <g class="plotpanel" id="img-719f6d25-46">
        <metadata>
          <boundingbox value="20.65166666666667mm 14.22333333333333mm 116.81499999999997mm 109.01166666666664mm"/>
          <unitbox value="-0.4254753357266322 7.114273017283794 24.850950671453266 -6.228546034567588"/>
        </metadata>
        <g shape-rendering="crispEdges" class="geometry" stroke="#000000" stroke-opacity="0.000" id="img-719f6d25-47">
          <g transform="translate(24.93,113.71)" id="img-719f6d25-48" fill="#005086">
            <path d="M-2.28,-7.53 L 2.28 -7.53 2.28 7.53 -2.28 7.53 z" class="primitive"/>
          </g>
          <g transform="translate(29.43,113.71)" id="img-719f6d25-49" fill="#005B8D">
            <path d="M-2.28,-7.53 L 2.28 -7.53 2.28 7.53 -2.28 7.53 z" class="primitive"/>
          </g>
          <g transform="translate(60.97,113.71)" id="img-719f6d25-50" fill="#0B87A5">
            <path d="M-2.28,-7.53 L 2.28 -7.53 2.28 7.53 -2.28 7.53 z" class="primitive"/>
          </g>
          <g transform="translate(65.47,113.71)" id="img-719f6d25-51" fill="#3998AD">
            <path d="M-2.28,-7.53 L 2.28 -7.53 2.28 7.53 -2.28 7.53 z" class="primitive"/>
          </g>
          <g transform="translate(69.98,113.71)" id="img-719f6d25-52" fill="#5AAAB6">
            <path d="M-2.28,-7.53 L 2.28 -7.53 2.28 7.53 -2.28 7.53 z" class="primitive"/>
          </g>
          <g transform="translate(74.48,113.71)" id="img-719f6d25-53" fill="#C2C9B7">
            <path d="M-2.28,-7.53 L 2.28 -7.53 2.28 7.53 -2.28 7.53 z" class="primitive"/>
          </g>
          <g transform="translate(78.99,113.71)" id="img-719f6d25-54" fill="#AFCDC3">
            <path d="M-2.28,-7.53 L 2.28 -7.53 2.28 7.53 -2.28 7.53 z" class="primitive"/>
          </g>
          <g transform="translate(83.49,113.71)" id="img-719f6d25-55" fill="#B1CDC3">
            <path d="M-2.28,-7.53 L 2.28 -7.53 2.28 7.53 -2.28 7.53 z" class="primitive"/>
          </g>
          <g transform="translate(88,113.71)" id="img-719f6d25-56" fill="#C4C9B6">
            <path d="M-2.28,-7.53 L 2.28 -7.53 2.28 7.53 -2.28 7.53 z" class="primitive"/>
          </g>
          <g transform="translate(92.5,113.71)" id="img-719f6d25-57" fill="#D0B092">
            <path d="M-2.28,-7.53 L 2.28 -7.53 2.28 7.53 -2.28 7.53 z" class="primitive"/>
          </g>
          <g transform="translate(97.01,113.71)" id="img-719f6d25-58" fill="#B6CCC0">
            <path d="M-2.28,-7.53 L 2.28 -7.53 2.28 7.53 -2.28 7.53 z" class="primitive"/>
          </g>
          <g transform="translate(101.51,113.71)" id="img-719f6d25-59" fill="#B5CCC1">
            <path d="M-2.28,-7.53 L 2.28 -7.53 2.28 7.53 -2.28 7.53 z" class="primitive"/>
          </g>
          <g transform="translate(106.01,113.71)" id="img-719f6d25-60" fill="#3E9AAF">
            <path d="M-2.28,-7.53 L 2.28 -7.53 2.28 7.53 -2.28 7.53 z" class="primitive"/>
          </g>
          <g transform="translate(110.52,113.71)" id="img-719f6d25-61" fill="#006593">
            <path d="M-2.28,-7.53 L 2.28 -7.53 2.28 7.53 -2.28 7.53 z" class="primitive"/>
          </g>
          <g transform="translate(115.02,113.71)" id="img-719f6d25-62" fill="#005D8F">
            <path d="M-2.28,-7.53 L 2.28 -7.53 2.28 7.53 -2.28 7.53 z" class="primitive"/>
          </g>
          <g transform="translate(119.53,113.71)" id="img-719f6d25-63" fill="#007099">
            <path d="M-2.28,-7.53 L 2.28 -7.53 2.28 7.53 -2.28 7.53 z" class="primitive"/>
          </g>
          <g transform="translate(124.03,113.71)" id="img-719f6d25-64" fill="#006090">
            <path d="M-2.28,-7.53 L 2.28 -7.53 2.28 7.53 -2.28 7.53 z" class="primitive"/>
          </g>
          <g transform="translate(128.54,113.71)" id="img-719f6d25-65" fill="#005589">
            <path d="M-2.28,-7.53 L 2.28 -7.53 2.28 7.53 -2.28 7.53 z" class="primitive"/>
          </g>
          <g transform="translate(56.46,98.71)" id="img-719f6d25-66" fill="#005388">
            <path d="M-2.28,-7.53 L 2.28 -7.53 2.28 7.53 -2.28 7.53 z" class="primitive"/>
          </g>
          <g transform="translate(60.97,98.71)" id="img-719f6d25-67" fill="#006392">
            <path d="M-2.28,-7.53 L 2.28 -7.53 2.28 7.53 -2.28 7.53 z" class="primitive"/>
          </g>
          <g transform="translate(65.47,98.71)" id="img-719f6d25-68" fill="#007099">
            <path d="M-2.28,-7.53 L 2.28 -7.53 2.28 7.53 -2.28 7.53 z" class="primitive"/>
          </g>
          <g transform="translate(69.98,98.71)" id="img-719f6d25-69" fill="#A7CEC6">
            <path d="M-2.28,-7.53 L 2.28 -7.53 2.28 7.53 -2.28 7.53 z" class="primitive"/>
          </g>
          <g transform="translate(74.48,98.71)" id="img-719f6d25-70" fill="#CAC7B4">
            <path d="M-2.28,-7.53 L 2.28 -7.53 2.28 7.53 -2.28 7.53 z" class="primitive"/>
          </g>
          <g transform="translate(78.99,98.71)" id="img-719f6d25-71" fill="#B6CBC0">
            <path d="M-2.28,-7.53 L 2.28 -7.53 2.28 7.53 -2.28 7.53 z" class="primitive"/>
          </g>
          <g transform="translate(83.49,98.71)" id="img-719f6d25-72" fill="#C2C9B7">
            <path d="M-2.28,-7.53 L 2.28 -7.53 2.28 7.53 -2.28 7.53 z" class="primitive"/>
          </g>
          <g transform="translate(88,98.71)" id="img-719f6d25-73" fill="#C9A185">
            <path d="M-2.28,-7.53 L 2.28 -7.53 2.28 7.53 -2.28 7.53 z" class="primitive"/>
          </g>
          <g transform="translate(92.5,98.71)" id="img-719f6d25-74" fill="#CEC6AF">
            <path d="M-2.28,-7.53 L 2.28 -7.53 2.28 7.53 -2.28 7.53 z" class="primitive"/>
          </g>
          <g transform="translate(97.01,98.71)" id="img-719f6d25-75" fill="#B7CBBE">
            <path d="M-2.28,-7.53 L 2.28 -7.53 2.28 7.53 -2.28 7.53 z" class="primitive"/>
          </g>
          <g transform="translate(101.51,98.71)" id="img-719f6d25-76" fill="#BBCABB">
            <path d="M-2.28,-7.53 L 2.28 -7.53 2.28 7.53 -2.28 7.53 z" class="primitive"/>
          </g>
          <g transform="translate(106.01,98.71)" id="img-719f6d25-77" fill="#005B8D">
            <path d="M-2.28,-7.53 L 2.28 -7.53 2.28 7.53 -2.28 7.53 z" class="primitive"/>
          </g>
          <g transform="translate(110.52,98.71)" id="img-719f6d25-78" fill="#006392">
            <path d="M-2.28,-7.53 L 2.28 -7.53 2.28 7.53 -2.28 7.53 z" class="primitive"/>
          </g>
          <g transform="translate(115.02,98.71)" id="img-719f6d25-79" fill="#005D8F">
            <path d="M-2.28,-7.53 L 2.28 -7.53 2.28 7.53 -2.28 7.53 z" class="primitive"/>
          </g>
          <g transform="translate(119.53,98.71)" id="img-719f6d25-80" fill="#004D84">
            <path d="M-2.28,-7.53 L 2.28 -7.53 2.28 7.53 -2.28 7.53 z" class="primitive"/>
          </g>
          <g transform="translate(124.03,98.71)" id="img-719f6d25-81" fill="#005388">
            <path d="M-2.28,-7.53 L 2.28 -7.53 2.28 7.53 -2.28 7.53 z" class="primitive"/>
          </g>
          <g transform="translate(128.54,98.71)" id="img-719f6d25-82" fill="#005589">
            <path d="M-2.28,-7.53 L 2.28 -7.53 2.28 7.53 -2.28 7.53 z" class="primitive"/>
          </g>
          <g transform="translate(24.93,83.71)" id="img-719f6d25-83" fill="#005388">
            <path d="M-2.28,-7.53 L 2.28 -7.53 2.28 7.53 -2.28 7.53 z" class="primitive"/>
          </g>
          <g transform="translate(29.43,83.71)" id="img-719f6d25-84" fill="#005388">
            <path d="M-2.28,-7.53 L 2.28 -7.53 2.28 7.53 -2.28 7.53 z" class="primitive"/>
          </g>
          <g transform="translate(56.46,83.71)" id="img-719f6d25-85" fill="#004D84">
            <path d="M-2.28,-7.53 L 2.28 -7.53 2.28 7.53 -2.28 7.53 z" class="primitive"/>
          </g>
          <g transform="translate(60.97,83.71)" id="img-719f6d25-86" fill="#56A8B5">
            <path d="M-2.28,-7.53 L 2.28 -7.53 2.28 7.53 -2.28 7.53 z" class="primitive"/>
          </g>
          <g transform="translate(65.47,83.71)" id="img-719f6d25-87" fill="#7BBDC0">
            <path d="M-2.28,-7.53 L 2.28 -7.53 2.28 7.53 -2.28 7.53 z" class="primitive"/>
          </g>
          <g transform="translate(69.98,83.71)" id="img-719f6d25-88" fill="#BACBBC">
            <path d="M-2.28,-7.53 L 2.28 -7.53 2.28 7.53 -2.28 7.53 z" class="primitive"/>
          </g>
          <g transform="translate(74.48,83.71)" id="img-719f6d25-89" fill="#CEC6AF">
            <path d="M-2.28,-7.53 L 2.28 -7.53 2.28 7.53 -2.28 7.53 z" class="primitive"/>
          </g>
          <g transform="translate(78.99,83.71)" id="img-719f6d25-90" fill="#B8CBBE">
            <path d="M-2.28,-7.53 L 2.28 -7.53 2.28 7.53 -2.28 7.53 z" class="primitive"/>
          </g>
          <g transform="translate(83.49,83.71)" id="img-719f6d25-91" fill="#4AA1B2">
            <path d="M-2.28,-7.53 L 2.28 -7.53 2.28 7.53 -2.28 7.53 z" class="primitive"/>
          </g>
          <g transform="translate(88,83.71)" id="img-719f6d25-92" fill="#BCCABB">
            <path d="M-2.28,-7.53 L 2.28 -7.53 2.28 7.53 -2.28 7.53 z" class="primitive"/>
          </g>
          <g transform="translate(92.5,83.71)" id="img-719f6d25-93" fill="#BACBBC">
            <path d="M-2.28,-7.53 L 2.28 -7.53 2.28 7.53 -2.28 7.53 z" class="primitive"/>
          </g>
          <g transform="translate(97.01,83.71)" id="img-719f6d25-94" fill="#AFCDC3">
            <path d="M-2.28,-7.53 L 2.28 -7.53 2.28 7.53 -2.28 7.53 z" class="primitive"/>
          </g>
          <g transform="translate(101.51,83.71)" id="img-719f6d25-95" fill="#007DA0">
            <path d="M-2.28,-7.53 L 2.28 -7.53 2.28 7.53 -2.28 7.53 z" class="primitive"/>
          </g>
          <g transform="translate(106.01,83.71)" id="img-719f6d25-96" fill="#1689A6">
            <path d="M-2.28,-7.53 L 2.28 -7.53 2.28 7.53 -2.28 7.53 z" class="primitive"/>
          </g>
          <g transform="translate(110.52,83.71)" id="img-719f6d25-97" fill="#007099">
            <path d="M-2.28,-7.53 L 2.28 -7.53 2.28 7.53 -2.28 7.53 z" class="primitive"/>
          </g>
          <g transform="translate(115.02,83.71)" id="img-719f6d25-98" fill="#3998AD">
            <path d="M-2.28,-7.53 L 2.28 -7.53 2.28 7.53 -2.28 7.53 z" class="primitive"/>
          </g>
          <g transform="translate(119.53,83.71)" id="img-719f6d25-99" fill="#5AAAB6">
            <path d="M-2.28,-7.53 L 2.28 -7.53 2.28 7.53 -2.28 7.53 z" class="primitive"/>
          </g>
          <g transform="translate(124.03,83.71)" id="img-719f6d25-100" fill="#007DA0">
            <path d="M-2.28,-7.53 L 2.28 -7.53 2.28 7.53 -2.28 7.53 z" class="primitive"/>
          </g>
          <g transform="translate(128.54,83.71)" id="img-719f6d25-101" fill="#005589">
            <path d="M-2.28,-7.53 L 2.28 -7.53 2.28 7.53 -2.28 7.53 z" class="primitive"/>
          </g>
          <g transform="translate(60.97,68.7)" id="img-719f6d25-102" fill="#005B8D">
            <path d="M-2.28,-7.53 L 2.28 -7.53 2.28 7.53 -2.28 7.53 z" class="primitive"/>
          </g>
          <g transform="translate(65.47,68.7)" id="img-719f6d25-103" fill="#469FB1">
            <path d="M-2.28,-7.53 L 2.28 -7.53 2.28 7.53 -2.28 7.53 z" class="primitive"/>
          </g>
          <g transform="translate(69.98,68.7)" id="img-719f6d25-104" fill="#BACBBC">
            <path d="M-2.28,-7.53 L 2.28 -7.53 2.28 7.53 -2.28 7.53 z" class="primitive"/>
          </g>
          <g transform="translate(74.48,68.7)" id="img-719f6d25-105" fill="#B9CBBD">
            <path d="M-2.28,-7.53 L 2.28 -7.53 2.28 7.53 -2.28 7.53 z" class="primitive"/>
          </g>
          <g transform="translate(78.99,68.7)" id="img-719f6d25-106" fill="#BBCABB">
            <path d="M-2.28,-7.53 L 2.28 -7.53 2.28 7.53 -2.28 7.53 z" class="primitive"/>
          </g>
          <g transform="translate(83.49,68.7)" id="img-719f6d25-107" fill="#A7CEC6">
            <path d="M-2.28,-7.53 L 2.28 -7.53 2.28 7.53 -2.28 7.53 z" class="primitive"/>
          </g>
          <g transform="translate(88,68.7)" id="img-719f6d25-108" fill="#C3C9B6">
            <path d="M-2.28,-7.53 L 2.28 -7.53 2.28 7.53 -2.28 7.53 z" class="primitive"/>
          </g>
          <g transform="translate(92.5,68.7)" id="img-719f6d25-109" fill="#C6C8B5">
            <path d="M-2.28,-7.53 L 2.28 -7.53 2.28 7.53 -2.28 7.53 z" class="primitive"/>
          </g>
          <g transform="translate(97.01,68.7)" id="img-719f6d25-110" fill="#B6CBC0">
            <path d="M-2.28,-7.53 L 2.28 -7.53 2.28 7.53 -2.28 7.53 z" class="primitive"/>
          </g>
          <g transform="translate(101.51,68.7)" id="img-719f6d25-111" fill="#93CAC7">
            <path d="M-2.28,-7.53 L 2.28 -7.53 2.28 7.53 -2.28 7.53 z" class="primitive"/>
          </g>
          <g transform="translate(106.01,68.7)" id="img-719f6d25-112" fill="#1689A6">
            <path d="M-2.28,-7.53 L 2.28 -7.53 2.28 7.53 -2.28 7.53 z" class="primitive"/>
          </g>
          <g transform="translate(110.52,68.7)" id="img-719f6d25-113" fill="#00588B">
            <path d="M-2.28,-7.53 L 2.28 -7.53 2.28 7.53 -2.28 7.53 z" class="primitive"/>
          </g>
          <g transform="translate(115.02,68.7)" id="img-719f6d25-114" fill="#006D98">
            <path d="M-2.28,-7.53 L 2.28 -7.53 2.28 7.53 -2.28 7.53 z" class="primitive"/>
          </g>
          <g transform="translate(119.53,68.7)" id="img-719f6d25-115" fill="#00759C">
            <path d="M-2.28,-7.53 L 2.28 -7.53 2.28 7.53 -2.28 7.53 z" class="primitive"/>
          </g>
          <g transform="translate(124.03,68.7)" id="img-719f6d25-116" fill="#005388">
            <path d="M-2.28,-7.53 L 2.28 -7.53 2.28 7.53 -2.28 7.53 z" class="primitive"/>
          </g>
          <g transform="translate(128.54,68.7)" id="img-719f6d25-117" fill="#429CB0">
            <path d="M-2.28,-7.53 L 2.28 -7.53 2.28 7.53 -2.28 7.53 z" class="primitive"/>
          </g>
          <g transform="translate(24.93,53.7)" id="img-719f6d25-118" fill="#005B8D">
            <path d="M-2.28,-7.53 L 2.28 -7.53 2.28 7.53 -2.28 7.53 z" class="primitive"/>
          </g>
          <g transform="translate(56.46,53.7)" id="img-719f6d25-119" fill="#005388">
            <path d="M-2.28,-7.53 L 2.28 -7.53 2.28 7.53 -2.28 7.53 z" class="primitive"/>
          </g>
          <g transform="translate(60.97,53.7)" id="img-719f6d25-120" fill="#248EA9">
            <path d="M-2.28,-7.53 L 2.28 -7.53 2.28 7.53 -2.28 7.53 z" class="primitive"/>
          </g>
          <g transform="translate(65.47,53.7)" id="img-719f6d25-121" fill="#2A90AA">
            <path d="M-2.28,-7.53 L 2.28 -7.53 2.28 7.53 -2.28 7.53 z" class="primitive"/>
          </g>
          <g transform="translate(69.98,53.7)" id="img-719f6d25-122" fill="#ACCEC4">
            <path d="M-2.28,-7.53 L 2.28 -7.53 2.28 7.53 -2.28 7.53 z" class="primitive"/>
          </g>
          <g transform="translate(74.48,53.7)" id="img-719f6d25-123" fill="#C2C9B7">
            <path d="M-2.28,-7.53 L 2.28 -7.53 2.28 7.53 -2.28 7.53 z" class="primitive"/>
          </g>
          <g transform="translate(78.99,53.7)" id="img-719f6d25-124" fill="#ABCEC5">
            <path d="M-2.28,-7.53 L 2.28 -7.53 2.28 7.53 -2.28 7.53 z" class="primitive"/>
          </g>
          <g transform="translate(83.49,53.7)" id="img-719f6d25-125" fill="#ABCEC5">
            <path d="M-2.28,-7.53 L 2.28 -7.53 2.28 7.53 -2.28 7.53 z" class="primitive"/>
          </g>
          <g transform="translate(88,53.7)" id="img-719f6d25-126" fill="#89C4C4">
            <path d="M-2.28,-7.53 L 2.28 -7.53 2.28 7.53 -2.28 7.53 z" class="primitive"/>
          </g>
          <g transform="translate(92.5,53.7)" id="img-719f6d25-127" fill="#B5CCC1">
            <path d="M-2.28,-7.53 L 2.28 -7.53 2.28 7.53 -2.28 7.53 z" class="primitive"/>
          </g>
          <g transform="translate(97.01,53.7)" id="img-719f6d25-128" fill="#BFCAB8">
            <path d="M-2.28,-7.53 L 2.28 -7.53 2.28 7.53 -2.28 7.53 z" class="primitive"/>
          </g>
          <g transform="translate(101.51,53.7)" id="img-719f6d25-129" fill="#B5CCC1">
            <path d="M-2.28,-7.53 L 2.28 -7.53 2.28 7.53 -2.28 7.53 z" class="primitive"/>
          </g>
          <g transform="translate(106.01,53.7)" id="img-719f6d25-130" fill="#53A5B4">
            <path d="M-2.28,-7.53 L 2.28 -7.53 2.28 7.53 -2.28 7.53 z" class="primitive"/>
          </g>
          <g transform="translate(110.52,53.7)" id="img-719f6d25-131" fill="#006593">
            <path d="M-2.28,-7.53 L 2.28 -7.53 2.28 7.53 -2.28 7.53 z" class="primitive"/>
          </g>
          <g transform="translate(115.02,53.7)" id="img-719f6d25-132" fill="#00759C">
            <path d="M-2.28,-7.53 L 2.28 -7.53 2.28 7.53 -2.28 7.53 z" class="primitive"/>
          </g>
          <g transform="translate(119.53,53.7)" id="img-719f6d25-133" fill="#0B87A5">
            <path d="M-2.28,-7.53 L 2.28 -7.53 2.28 7.53 -2.28 7.53 z" class="primitive"/>
          </g>
          <g transform="translate(124.03,53.7)" id="img-719f6d25-134" fill="#00789D">
            <path d="M-2.28,-7.53 L 2.28 -7.53 2.28 7.53 -2.28 7.53 z" class="primitive"/>
          </g>
          <g transform="translate(128.54,53.7)" id="img-719f6d25-135" fill="#006D98">
            <path d="M-2.28,-7.53 L 2.28 -7.53 2.28 7.53 -2.28 7.53 z" class="primitive"/>
          </g>
          <g transform="translate(24.93,38.7)" id="img-719f6d25-136" fill="#00588B">
            <path d="M-2.28,-7.53 L 2.28 -7.53 2.28 7.53 -2.28 7.53 z" class="primitive"/>
          </g>
          <g transform="translate(29.43,38.7)" id="img-719f6d25-137" fill="#007DA0">
            <path d="M-2.28,-7.53 L 2.28 -7.53 2.28 7.53 -2.28 7.53 z" class="primitive"/>
          </g>
          <g transform="translate(47.45,38.7)" id="img-719f6d25-138" fill="#004D84">
            <path d="M-2.28,-7.53 L 2.28 -7.53 2.28 7.53 -2.28 7.53 z" class="primitive"/>
          </g>
          <g transform="translate(60.97,38.7)" id="img-719f6d25-139" fill="#006392">
            <path d="M-2.28,-7.53 L 2.28 -7.53 2.28 7.53 -2.28 7.53 z" class="primitive"/>
          </g>
          <g transform="translate(65.47,38.7)" id="img-719f6d25-140" fill="#006D98">
            <path d="M-2.28,-7.53 L 2.28 -7.53 2.28 7.53 -2.28 7.53 z" class="primitive"/>
          </g>
          <g transform="translate(69.98,38.7)" id="img-719f6d25-141" fill="#0084A4">
            <path d="M-2.28,-7.53 L 2.28 -7.53 2.28 7.53 -2.28 7.53 z" class="primitive"/>
          </g>
          <g transform="translate(74.48,38.7)" id="img-719f6d25-142" fill="#2F93AB">
            <path d="M-2.28,-7.53 L 2.28 -7.53 2.28 7.53 -2.28 7.53 z" class="primitive"/>
          </g>
          <g transform="translate(78.99,38.7)" id="img-719f6d25-143" fill="#248EA9">
            <path d="M-2.28,-7.53 L 2.28 -7.53 2.28 7.53 -2.28 7.53 z" class="primitive"/>
          </g>
          <g transform="translate(83.49,38.7)" id="img-719f6d25-144" fill="#006392">
            <path d="M-2.28,-7.53 L 2.28 -7.53 2.28 7.53 -2.28 7.53 z" class="primitive"/>
          </g>
          <g transform="translate(88,38.7)" id="img-719f6d25-145" fill="#1689A6">
            <path d="M-2.28,-7.53 L 2.28 -7.53 2.28 7.53 -2.28 7.53 z" class="primitive"/>
          </g>
          <g transform="translate(92.5,38.7)" id="img-719f6d25-146" fill="#3998AD">
            <path d="M-2.28,-7.53 L 2.28 -7.53 2.28 7.53 -2.28 7.53 z" class="primitive"/>
          </g>
          <g transform="translate(97.01,38.7)" id="img-719f6d25-147" fill="#007DA0">
            <path d="M-2.28,-7.53 L 2.28 -7.53 2.28 7.53 -2.28 7.53 z" class="primitive"/>
          </g>
          <g transform="translate(101.51,38.7)" id="img-719f6d25-148" fill="#006D98">
            <path d="M-2.28,-7.53 L 2.28 -7.53 2.28 7.53 -2.28 7.53 z" class="primitive"/>
          </g>
          <g transform="translate(106.01,38.7)" id="img-719f6d25-149" fill="#006B96">
            <path d="M-2.28,-7.53 L 2.28 -7.53 2.28 7.53 -2.28 7.53 z" class="primitive"/>
          </g>
          <g transform="translate(110.52,38.7)" id="img-719f6d25-150" fill="#004D84">
            <path d="M-2.28,-7.53 L 2.28 -7.53 2.28 7.53 -2.28 7.53 z" class="primitive"/>
          </g>
          <g transform="translate(115.02,38.7)" id="img-719f6d25-151" fill="#1D8CA8">
            <path d="M-2.28,-7.53 L 2.28 -7.53 2.28 7.53 -2.28 7.53 z" class="primitive"/>
          </g>
          <g transform="translate(119.53,38.7)" id="img-719f6d25-152" fill="#0B87A5">
            <path d="M-2.28,-7.53 L 2.28 -7.53 2.28 7.53 -2.28 7.53 z" class="primitive"/>
          </g>
          <g transform="translate(128.54,38.7)" id="img-719f6d25-153" fill="#005086">
            <path d="M-2.28,-7.53 L 2.28 -7.53 2.28 7.53 -2.28 7.53 z" class="primitive"/>
          </g>
          <g transform="translate(60.97,23.7)" id="img-719f6d25-154" fill="#004D84">
            <path d="M-2.28,-7.53 L 2.28 -7.53 2.28 7.53 -2.28 7.53 z" class="primitive"/>
          </g>
          <g transform="translate(69.98,23.7)" id="img-719f6d25-155" fill="#00588B">
            <path d="M-2.28,-7.53 L 2.28 -7.53 2.28 7.53 -2.28 7.53 z" class="primitive"/>
          </g>
          <g transform="translate(88,23.7)" id="img-719f6d25-156" fill="#005388">
            <path d="M-2.28,-7.53 L 2.28 -7.53 2.28 7.53 -2.28 7.53 z" class="primitive"/>
          </g>
          <g transform="translate(92.5,23.7)" id="img-719f6d25-157" fill="#3E9AAF">
            <path d="M-2.28,-7.53 L 2.28 -7.53 2.28 7.53 -2.28 7.53 z" class="primitive"/>
          </g>
          <g transform="translate(97.01,23.7)" id="img-719f6d25-158" fill="#005589">
            <path d="M-2.28,-7.53 L 2.28 -7.53 2.28 7.53 -2.28 7.53 z" class="primitive"/>
          </g>
          <g transform="translate(110.52,23.7)" id="img-719f6d25-159" fill="#004D84">
            <path d="M-2.28,-7.53 L 2.28 -7.53 2.28 7.53 -2.28 7.53 z" class="primitive"/>
          </g>
          <g transform="translate(115.02,23.7)" id="img-719f6d25-160" fill="#1689A6">
            <path d="M-2.28,-7.53 L 2.28 -7.53 2.28 7.53 -2.28 7.53 z" class="primitive"/>
          </g>
          <g transform="translate(119.53,23.7)" id="img-719f6d25-161" fill="#69B2BA">
            <path d="M-2.28,-7.53 L 2.28 -7.53 2.28 7.53 -2.28 7.53 z" class="primitive"/>
          </g>
          <g transform="translate(124.03,23.7)" id="img-719f6d25-162" fill="#2F93AB">
            <path d="M-2.28,-7.53 L 2.28 -7.53 2.28 7.53 -2.28 7.53 z" class="primitive"/>
          </g>
          <g transform="translate(128.54,23.7)" id="img-719f6d25-163" fill="#005589">
            <path d="M-2.28,-7.53 L 2.28 -7.53 2.28 7.53 -2.28 7.53 z" class="primitive"/>
          </g>
        </g>
      </g>
    </g>
  </g>
  <g class="guide ylabels" font-size="2.82" font-family="'PT Sans Caption','Helvetica Neue','Helvetica',sans-serif" fill="#6C606B" id="img-719f6d25-164">
    <g transform="translate(19.65,121.23)" id="img-719f6d25-165">
      <g class="primitive">
        <text text-anchor="end" dy="0.35em">Mon</text>
      </g>
    </g>
    <g transform="translate(19.65,103.73)" id="img-719f6d25-166">
      <g class="primitive">
        <text text-anchor="end" dy="0.35em">Tue</text>
      </g>
    </g>
    <g transform="translate(19.65,86.23)" id="img-719f6d25-167">
      <g class="primitive">
        <text text-anchor="end" dy="0.35em">Wed</text>
      </g>
    </g>
    <g transform="translate(19.65,68.73)" id="img-719f6d25-168">
      <g class="primitive">
        <text text-anchor="end" dy="0.35em">Thu</text>
      </g>
    </g>
    <g transform="translate(19.65,51.23)" id="img-719f6d25-169">
      <g class="primitive">
        <text text-anchor="end" dy="0.35em">Fri</text>
      </g>
    </g>
    <g transform="translate(19.65,33.73)" id="img-719f6d25-170">
      <g class="primitive">
        <text text-anchor="end" dy="0.35em">Sat</text>
      </g>
    </g>
    <g transform="translate(19.65,16.22)" id="img-719f6d25-171">
      <g class="primitive">
        <text text-anchor="end" dy="0.35em">Sun</text>
      </g>
    </g>
  </g>
  <g font-size="3.88" font-family="'PT Sans','Helvetica Neue','Helvetica',sans-serif" fill="#564A55" stroke="#000000" stroke-opacity="0.000" id="img-719f6d25-172">
    <g transform="translate(8.81,66.73)" id="img-719f6d25-173">
      <g class="primitive">
        <text text-anchor="middle" dy="0.35em" transform="rotate(-90,0, 2)">Day of the week</text>
      </g>
    </g>
  </g>
  <g font-size="3.88" font-family="'PT Sans','Helvetica Neue','Helvetica',sans-serif" fill="#564A55" stroke="#000000" stroke-opacity="0.000" id="img-719f6d25-174">
    <g transform="translate(79.06,5)" id="img-719f6d25-175">
      <g class="primitive">
        <text text-anchor="middle" dy="0.6em">Week-hour messaging heat map between Brent Halonen and Chloe Halonen<tspan x="0" dy="1.2em"> from Jun-15-2018 to Mar-30-2019</tspan></text>
      </g>
    </g>
  </g>
</g>
<defs>
  <clipPath id="img-719f6d25-9">
    <path d="M20.65,14.22 L 137.47 14.22 137.47 123.23 20.65 123.23" />
  </clipPath>
</defs>
</svg>
